<?xml version="1.0" encoding="UTF-8"?> <svg xmlns="http://www.w3.org/2000/svg" xmlns:xlink="http://www.w3.org/1999/xlink" width="60px" height="60px" viewBox="0 0 60 60" version="1.1"><title>Icons/Highlights/couple</title><g id="Icons/Highlights/couple" stroke="none" stroke-width="1" fill="none" fill-rule="evenodd"><path d="M47.407128,20.2256787 C47.8153044,20.2192778 48.1792051,20.4810837 48.3016214,20.869335 L48.3016214,20.869335 L51.2894135,30.0627241 C51.5384069,30.8155271 51.4504681,31.6387411 51.0480286,32.3223805 C50.6455891,33.0060198 49.96756,33.4839847 49.1868931,33.6343557 L49.1868931,33.6343557 L51.0312093,39.242323 C51.1245625,39.522735 51.0770451,39.8307892 50.9034963,40.0702829 C50.7299475,40.3097765 50.451518,40.4515221 50.1551591,40.4512537 L50.1551591,40.4512537 L46.0976636,40.4512537 L46.0976636,50.3249535 C46.1010042,51.3051984 45.5346542,52.1986871 44.6451647,52.6164544 C43.7556751,53.0342218 42.7039937,52.9006752 41.9479523,52.273952 C41.1919108,52.9006752 40.1402294,53.0342218 39.2507398,52.6164544 C38.3612503,52.1986871 37.7949003,51.3051984 37.7982409,50.3249535 L37.7982409,50.3249535 L37.7982409,40.4512537 L33.7407454,40.4512537 C33.4422703,40.457005 33.1594683,40.318353 32.9818183,40.0791674 C32.8041684,39.8399818 32.7536518,39.5298581 32.8462521,39.2469197 L32.8462521,39.2469197 L34.5614661,33.5745987 C33.8234011,33.3836785 33.197104,32.8975254 32.8305099,32.2309715 C32.4639157,31.5644176 32.389534,30.7765728 32.6249341,30.0535307 L32.6249341,30.0535307 L35.6127263,20.8601416 C35.7374259,20.4788123 36.0957029,20.222088 36.497998,20.2256787 L36.497998,20.2256787 Z M27.2584674,20.225805 C27.7164311,20.2157956 28.1178414,20.518437 28.2162058,20.9481404 L28.2162058,20.9481404 L31.2570252,34.0789974 C31.5142587,35.2767546 30.7361406,36.454629 29.4982728,36.7413046 C28.260405,37.0279802 27.0088634,36.3201512 26.6694582,35.141424 L26.6694582,35.141424 L26.5305862,34.626308 L26.8418512,49.1093443 C26.8418512,49.6173634 26.4130571,50.0291942 25.8841127,50.0291942 L25.8841127,50.0291942 L24.9646839,50.0291942 L24.9646839,50.3235461 C24.9681534,51.3043358 24.3799515,52.1983211 23.4561421,52.6163206 C22.5323326,53.0343202 21.4400734,52.9006994 20.654861,52.2736279 C19.8696486,52.9006994 18.7773894,53.0343202 17.85358,52.6163206 C16.9297705,52.1983211 16.3415687,51.3043358 16.3450382,50.3235461 L16.3450382,50.3235461 L16.3450382,50.0291942 L15.430398,50.0291942 C14.9014537,50.0291942 14.4726596,49.6173634 14.4726596,49.1093443 L14.4726596,49.1093443 L14.7839245,34.607911 L14.6450525,35.1368247 C14.3798783,36.1405923 13.4390754,36.8433801 12.3608464,36.8431462 L12.3608464,36.8431462 C11.6403321,36.838547 10.9634125,36.5260733 10.5163023,35.9892954 C10.0691921,35.4525175 9.900375,34.7496424 10.0574855,34.0789974 L10.0574855,34.0789974 L13.0791502,20.9481404 C13.1775145,20.518437 13.5789249,20.2157956 14.0368886,20.225805 L14.0368886,20.225805 Z M19.7019113,50.0567897 L18.2653037,50.0567897 L18.2653037,50.3511416 C18.2653037,50.7321559 18.5868992,51.0410291 18.9836075,51.0410291 C19.1783355,51.041133 19.3647633,50.9653004 19.5001813,50.8309042 C19.6355993,50.696508 19.7084023,50.5150659 19.7019113,50.3281454 L19.7019113,50.3281454 L19.7019113,50.0567897 Z M23.0539957,50.0567897 L21.6173881,50.0567897 L21.6173881,50.3511416 C21.6173881,50.7321559 21.9389837,51.041029 22.3356919,51.041029 C22.7324002,51.041029 23.0539957,50.7321559 23.0539957,50.3511416 L23.0539957,50.3511416 L23.0539957,50.0567897 Z M41.030405,40.4512537 L39.6471679,40.4512537 L39.6471679,50.3341469 C39.6471679,50.7149496 39.956816,51.0236513 40.3387864,51.0236513 C40.5271105,51.0238013 40.7073524,50.9473837 40.8378815,50.8120485 C40.9684105,50.6767133 41.037938,50.4941648 41.030405,50.3065667 L41.030405,50.3065667 L41.030405,40.4512537 Z M44.2579582,40.4512537 L42.8747211,40.4512537 L42.8747211,50.3341469 C42.8747211,50.7149496 43.1843693,51.0236511 43.5663397,51.0236511 C43.9483101,51.0236511 44.2579582,50.7149496 44.2579582,50.3341469 L44.2579582,50.3341469 L44.2579582,40.4512537 Z M24.605532,34.2813643 L21.6125994,34.2813643 L21.6125994,48.2078914 L24.9120083,48.2078914 L24.605532,34.2813643 Z M19.6971226,34.2813643 L16.7041901,34.2813643 L16.4072912,48.2078914 L19.6971226,48.2078914 L19.6971226,34.2813643 Z M46.7339527,22.0644756 L37.1527303,22.0644756 L34.3862561,30.6281175 C34.304987,30.8811324 34.3374806,31.156826 34.4753652,31.3841688 C34.6132498,31.6115116 34.8430424,31.7682729 35.1055394,31.8140647 L35.1055394,31.8140647 L36.5348844,27.0426958 C36.6312501,26.7257433 36.8899063,26.4841205 37.2134197,26.4088442 C37.5369332,26.333568 37.8761545,26.4360746 38.1033023,26.6777509 C38.3304501,26.9194271 38.4110151,27.2635566 38.3146494,27.580509 L38.3146494,27.580509 L34.9856588,38.6125759 L48.882581,38.6125759 L45.2400566,27.580509 C45.1229387,27.1109427 45.3909577,26.6312439 45.8530742,26.4833337 C46.3151908,26.3354236 46.813212,26.569935 46.9921569,27.0197123 L46.9921569,27.0197123 L48.5874904,31.8278548 L48.6382091,31.8278548 C48.9333494,31.8286181 49.2110247,31.6884961 49.3851571,31.4509258 C49.552785,31.2105927 49.5955907,30.9050411 49.5004269,30.6281175 L49.5004269,30.6281175 L46.7339527,22.0644756 Z M26.5114314,22.065758 L14.7982906,22.065758 L11.9250754,34.4837313 C11.8942839,34.6098641 11.9253526,34.742594 12.0093896,34.8439329 C12.0934266,34.9452719 12.2211695,35.0040507 12.3560577,35.0034679 C12.5585926,35.0053922 12.7364138,34.8744558 12.78704,34.6860983 L12.78704,34.6860983 L14.9898383,26.3752547 C15.1216685,25.9164537 15.5961344,25.6300091 16.0837564,25.7148345 C16.5713785,25.7996598 16.9110977,26.2277377 16.8670056,26.7018014 C16.8695021,26.740091 16.8695021,26.7784931 16.8670056,26.8167826 L16.8670056,26.8167826 L16.7472883,32.4462638 L24.5767998,32.4462638 L24.4570825,26.8167826 L24.4570825,26.8167826 L24.4570825,26.7799886 C24.4278944,26.3082226 24.7756781,25.8919764 25.2615394,25.8171715 C25.7474007,25.7423665 26.2132263,26.0333465 26.3390385,26.4902359 L26.3390385,26.4902359 L28.5226821,34.681499 C28.5728706,34.8681889 28.7481214,34.9986825 28.9488757,34.9988472 C29.0835473,35.0005373 29.2116259,34.9429699 29.2965561,34.8425757 C29.3814863,34.7421814 29.4139371,34.6099903 29.3846466,34.4837313 L29.3846466,34.4837313 L26.5114314,22.065758 Z M27.2150516,16.0834894 C28.082565,15.3907166 29.4321945,15.3907166 30.2997079,16.0834894 L30.2997079,16.0834894 L30.7192212,16.4199387 L31.1387344,16.0834894 L31.2963332,15.969297 C32.1611652,15.3983349 33.3983325,15.436399 34.2135198,16.0834894 L34.2135198,16.0834894 L34.3435772,16.1944876 C34.672557,16.502745 34.8571429,16.9058675 34.8571429,17.3262491 C34.8571429,17.7991784 34.6235263,18.2502641 34.2135198,18.5690088 L34.2135198,18.5690088 L33.7940065,18.9054581 L30.7093503,21.3909774 L27.6345649,18.9054581 L27.2150516,18.5690088 C26.8050451,18.2502641 26.5714286,17.7991784 26.5714286,17.3262491 C26.5714286,16.8533198 26.8050451,16.4022341 27.2150516,16.0834894 Z M41.3673469,8.57142857 C44.3091086,8.57142857 46.6938776,10.9194089 46.6938776,13.8157895 C46.6938776,15.2066805 46.1326911,16.5406042 45.1337729,17.5241126 C44.1348546,18.5076211 42.7800307,19.0601504 41.3673469,19.0601504 C38.4255853,19.0601504 36.0408163,16.71217 36.0408163,13.8157895 C36.0408163,10.9194089 38.4255853,8.57142857 41.3673469,8.57142857 Z M20.0612245,8.57142857 C21.4739082,8.57142857 22.8287321,9.12395787 23.8276504,10.1074663 C24.8265687,11.0909748 25.3877551,12.4248985 25.3877551,13.8157895 C25.3877551,16.71217 23.0029861,19.0601504 20.0612245,19.0601504 C17.1194629,19.0601504 14.7346939,16.71217 14.7346939,13.8157895 C14.7346939,10.9194089 17.1194629,8.57142857 20.0612245,8.57142857 Z M20.0612245,10.5261449 C18.1891944,10.5261449 16.6716141,12.0203142 16.6716141,13.8634655 C16.6716141,15.7066167 18.1891944,17.2007861 20.0612245,17.2007861 C20.9602051,17.2007861 21.8223657,16.8491765 22.458041,16.2233075 C23.0937162,15.5974385 23.4508349,14.7485779 23.4508349,13.8634655 C23.4508349,12.0203142 21.9332546,10.5261449 20.0612245,10.5261449 Z M41.3334508,10.4784689 C39.4614207,10.4784689 37.9438404,11.9726382 37.9438404,13.8157895 C37.9438404,15.6589407 39.4614207,17.15311 41.3334508,17.15311 C43.205481,17.15311 44.7230612,15.6589407 44.7230612,13.8157895 C44.7230612,11.9726382 43.205481,10.4784689 41.3334508,10.4784689 Z" id="Combined-Shape" fill="#000000" fill-rule="nonzero"></path></g></svg> 