<?xml version="1.0" encoding="UTF-8"?> <svg xmlns="http://www.w3.org/2000/svg" xmlns:xlink="http://www.w3.org/1999/xlink" width="60px" height="60px" viewBox="0 0 60 60" version="1.1"><title>Icons/Highlights/fire-pit</title><g id="Icons/Highlights/fire-pit" stroke="none" stroke-width="1" fill="none" fill-rule="evenodd"><path d="M47.6066754,31.3445378 C48.1394807,31.3445378 48.5714267,31.7935957 48.5714267,32.3475111 C48.5739919,38.2337917 46.004616,43.802636 41.5872954,47.4848557 L41.5872954,47.4848557 L45.089297,51.1422531 C45.3324862,51.3962179 45.4268772,51.7657714 45.3369138,52.1117063 C45.2469504,52.4576412 44.9863003,52.7274017 44.6531477,52.8193717 C44.3199951,52.9113417 43.9649539,52.8115487 43.7217648,52.5575838 L43.7217648,52.5575838 L40.0022025,48.6729579 C33.9956378,52.7044755 26.2890471,52.7639458 20.2255786,48.8255703 L20.2255786,48.8255703 L16.2436046,52.5918604 C15.9890285,52.835644 15.6283443,52.91897 15.2984147,52.81022 C14.968485,52.7014701 14.719873,52.4173107 14.6469152,52.0655669 C14.5739574,51.7138231 14.6878349,51.3484011 14.9453365,51.1079614 L14.9453365,51.1079614 L18.6071344,47.644509 C14.0748471,43.9678733 11.4263289,38.3240705 11.4285729,32.3475111 C11.4285729,31.7935957 11.8605183,31.3445378 12.3933236,31.3445378 L12.3933236,31.3445378 Z M46.6146043,33.3504844 L13.3853947,33.3504844 C13.853417,42.534939 21.1531818,49.7325246 29.9999995,49.7325246 C38.8468172,49.7325246 46.1465821,42.534939 46.6146043,33.3504844 L46.6146043,33.3504844 Z M40.9702516,36.7234875 C41.2369272,36.7334675 41.4887427,36.8500333 41.6702595,37.0475222 C41.8517764,37.2450111 41.9481132,37.5072323 41.9380609,37.7764563 C41.7710236,42.2858952 37.5981495,45.7723913 34.0754803,47.387795 C33.5695993,47.6198074 32.9732032,47.3938643 32.7433924,46.8831369 C32.5135816,46.3724095 32.7373808,45.7703 33.2432618,45.5382876 C36.4807542,44.0535724 39.8029876,41.0543851 39.9272796,37.7005684 C39.9366365,37.4311538 40.0519355,37.1766066 40.2476697,36.9932382 C40.4434038,36.8098697 40.7034398,36.7127944 40.9702516,36.7234875 Z M25.7966169,13.0650747 C25.9831616,12.6574 26.402987,12.4429281 26.8104529,12.5471465 C27.2179187,12.651365 27.5059388,13.0468841 27.5059923,13.5022854 C27.5073136,13.591169 27.5654423,15.8876695 29.7372271,18.2613128 C29.9645783,18.5097827 30.052822,18.8713402 29.9687176,19.2097901 C29.8846132,19.54824 29.6409381,19.8121637 29.3294825,19.9021438 C29.0180269,19.9921238 28.6861082,19.8944901 28.4587569,19.6460202 C27.5290071,18.6483156 26.7886826,17.4614109 26.2799282,16.152873 C25.6834215,17.2038596 25.1115733,18.0584004 24.6143725,18.8010615 C23.3519926,20.6871843 22.5181144,21.9334146 22.5181144,24.4052832 C22.5160779,25.3952889 22.7023013,26.3750492 23.0650786,27.2829765 C23.186023,27.5862579 23.158546,27.9354007 22.991974,28.2118984 C22.825402,28.488396 22.5421066,28.6551131 22.2382444,28.6554622 C21.8788604,28.6554622 21.5536965,28.4235965 21.4105624,28.0649424 C20.9489738,26.910357 20.7119199,25.6643615 20.7142857,24.4052881 C20.7142857,21.2944887 21.7919208,19.6843536 23.1562491,17.6458638 C24.1617847,16.2088723 25.0455233,14.675669 25.7966169,13.0650747 Z M29.1483682,7.14403156 C29.5710598,7.12262132 29.9557597,7.39579796 30.0893582,7.81223164 C31.3262503,11.6780801 33.1543121,14.4741528 34.7671331,16.941009 C36.4798613,19.5608956 37.9591837,21.8231538 37.9591837,24.4179729 C37.9616919,25.6735647 37.7134586,26.916094 37.230102,28.0672885 C37.0224835,28.5625217 36.4670542,28.789443 35.989516,28.5741313 C35.5119777,28.3588196 35.2931645,27.7828092 35.500783,27.287576 C35.8804744,26.3822452 36.0754027,25.4052249 36.0733064,24.4179729 C36.0733064,22.423815 34.8080983,20.4886222 33.2063284,18.0387172 C31.6794115,15.82343 30.3562268,13.4644965 29.2541603,10.992912 C29.2202433,11.0744005 29.1853285,11.1564463 29.1494158,11.2390496 C28.9349279,11.7311019 28.3765462,11.9498428 27.9019299,11.7277408 C27.4273695,11.5053942 27.2164221,10.9262225 27.4307329,10.4340348 C27.7839111,9.61839798 28.0663321,8.77175788 28.2746481,7.90415063 C28.3684784,7.47619719 28.7256767,7.1654418 29.1483682,7.14403156 Z" id="Combined-Shape" fill="#000000" fill-rule="nonzero"></path></g></svg> 