<?xml version="1.0" encoding="UTF-8"?> <!-- Generator: Adobe Illustrator 16.0.0, SVG Export Plug-In . SVG Version: 6.00 Build 0) --> <svg xmlns="http://www.w3.org/2000/svg" xmlns:xlink="http://www.w3.org/1999/xlink" version="1.1" id="Icons_Highlights_Yoga_Copy_3" x="0px" y="0px" width="65.92px" height="65.92px" viewBox="-3.748 -10.599 65.92 65.92" xml:space="preserve"> <g id="Group" transform="translate(0 0)"> <path id="Shape" d="M55.813,44.721L55.813,44.721l-8.726-13.828l-3.789,3.762l-3.594-3.6l-3.547,3.617L32.6,31.064l-3.537,3.608 l-3.911-3.965l-8.688,13.777l-2.611-1.648l5.954-9.446l-4.345-1.781l-3.534,3.61l-3.304-3.354l-5.517,8.601l-2.6-1.668 l13.316-20.761c0.268-0.432,0.734-0.699,1.242-0.713c0.031,0,0.063,0,0.095,0c0.538,0.015,1.03,0.307,1.3,0.772l6.212,10.76 L34.763,9.705c0.455-0.722,1.41-0.938,2.131-0.481c0.195,0.122,0.359,0.287,0.482,0.481l21.049,33.368l-2.611,1.646L55.813,44.721z M15.056,21.841l-4.721,7.36l1.59,1.613l2.79-2.852l5.078,2.083L15.056,21.841z M39.686,26.67L39.686,26.67l3.621,3.626l2.091-2.08 l-9.331-14.793l-9.22,14.609l2.211,2.241l3.538-3.609l3.558,3.609l3.532-3.601V26.67z"></path> <path id="Shape-2" d="M16.768,13.525c-0.4,0-2.884-0.063-5-0.117l-0.342-0.009H11.42c-2.611-0.066-5.569-0.141-6.115-0.141 c-2.932,0-5.308-2.376-5.308-5.307c0-2.932,2.376-5.308,5.308-5.308c0.342-0.001,0.684,0.032,1.019,0.1 C8.563-0.271,12.823-0.9,15.837,1.34c1.402,1.042,2.35,2.583,2.646,4.305c2.074,0.944,2.99,3.391,2.045,5.465 C19.858,12.583,18.387,13.528,16.768,13.525L16.768,13.525z M5.306,5.735c-1.225,0-2.217,0.992-2.217,2.217 s0.993,2.217,2.217,2.217c0.6,0,3.563,0.075,6.427,0.147h0.006h0.108c2.358,0.06,4.587,0.116,4.92,0.116 c0.573,0.004,1.041-0.458,1.045-1.031c0.004-0.536-0.402-0.987-0.937-1.04C16.094,8.277,15.5,7.617,15.5,6.83 c0-0.017,0-0.039,0-0.058c-0.012-2.051-1.684-3.702-3.733-3.69C10.319,3.09,9.008,3.939,8.409,5.257 c-0.357,0.775-1.275,1.114-2.05,0.757c-0.017-0.008-0.033-0.016-0.05-0.024C6,5.826,5.656,5.739,5.306,5.735z"></path> </g> </svg> 