<?xml version="1.0" encoding="UTF-8"?> <!-- Generator: Adobe Illustrator 16.0.0, SVG Export Plug-In . SVG Version: 6.00 Build 0) --> <svg xmlns="http://www.w3.org/2000/svg" xmlns:xlink="http://www.w3.org/1999/xlink" version="1.1" id="Simbavati_Logo_White" x="0px" y="0px" width="257.361px" height="60px" viewBox="0 0 257.361 60" xml:space="preserve"> <g id="Group"> <path id="SIMBAVATI" fill="#393636" d="M0,28.053h1.168c0,5.153,5.2,9.032,11.786,9.032c6.053,0,10.354-2.975,10.354-7.066 c0-4.463-4.938-6.535-10.619-8.766C7.327,19.074,0.85,16.471,0.85,10.041C0.85,4.145,6.318,0,13.7,0 c6.743,0,11.946,4.145,11.946,9.616h-1.17c0-4.835-4.407-8.447-10.247-8.447c-5.575,0-9.716,3.082-9.716,7.119 c0,4.569,5.31,6.748,10.565,8.82c6.159,2.337,12,4.622,12,10.945c0,6.216-5.628,10.2-13.486,10.2C6,38.254,0,33.844,0,28.053z M252.635,37.723V0.531h4.727v37.192H252.635z M228.903,37.723V1.594H216.32V0.531h29.785v1.063h-12.478v36.129H228.903z M181.666,37.723l16.3-37.19h2.072l16.246,37.188h-4.938l-4.779-11h-18.581l-4.832,11l0,0L181.666,37.723z M188.408,25.662h17.678 l-8.813-20.24L188.408,25.662z M169.916,37.723L153.67,0.531h4.938l14.123,32.357L186.8,0.531h1.487l-16.3,37.192H169.916z M123.023,37.723L139.32,0.531h2.073l16.246,37.188H152.7l-4.78-11h-18.578l-4.832,11l0,0L123.023,37.723z M129.765,25.662h17.678 l-8.812-20.24L129.765,25.662z M93.01,37.723V0.533h16.244c2.936-0.069,5.805,0.869,8.134,2.657 c2.013,1.551,3.204,3.939,3.231,6.48c0,4.041-3.017,7.319-8.068,8.766c2.599,0.441,5.015,1.622,6.959,3.4 c1.724,1.61,2.701,3.863,2.7,6.221c0.002,2.682-1.199,5.223-3.271,6.925c-2.29,1.837-5.155,2.81-8.09,2.744L93.01,37.723z M97.738,19.123v17.538h11.785c4.711,0,7.754-3.357,7.754-8.555c0-6.62-4.416-8.98-8.551-8.98L97.738,19.123z M97.738,1.594v16.468 h9.4c5.271,0,8.545-3.132,8.545-8.177c0-5.045-3.043-8.285-7.751-8.285L97.738,1.594z M80.538,37.721V2.869L65.3,28.053h-0.85 L49.217,2.869v34.854h-1.273V0.531h5.149l13.646,22.475L80.33,0.531h4.938v37.192L80.538,37.721z M33.073,37.721V0.531H37.8v37.192 L33.073,37.721z"></path> </g> <path id="LODGECOLLECTION" fill="#393636" d="M220.117,59.59c-0.612-0.272-1.164-0.666-1.623-1.155 c-0.467-0.503-0.833-1.093-1.078-1.733c-0.256-0.688-0.385-1.418-0.381-2.152c-0.007-0.729,0.126-1.454,0.391-2.135 c0.245-0.643,0.613-1.232,1.084-1.733c0.455-0.493,1.003-0.89,1.612-1.171c0.625-0.281,1.303-0.425,1.988-0.42 c0.688-0.006,1.37,0.136,2,0.414c0.608,0.274,1.156,0.667,1.61,1.156c0.468,0.504,0.835,1.093,1.08,1.735 c0.261,0.687,0.392,1.415,0.386,2.147c0.004,0.73-0.129,1.455-0.392,2.136c-0.247,0.644-0.616,1.233-1.088,1.735 c-0.454,0.492-1.002,0.887-1.612,1.16c-0.621,0.285-1.298,0.431-1.981,0.424C221.427,60.006,220.746,59.868,220.117,59.59z M220.13,50.782c-0.584,0.379-1.056,0.909-1.363,1.534c-0.339,0.694-0.509,1.458-0.495,2.229c-0.015,0.773,0.154,1.539,0.495,2.234 c0.307,0.627,0.777,1.157,1.363,1.535c1.216,0.742,2.745,0.742,3.961,0c0.584-0.379,1.055-0.91,1.36-1.535 c0.338-0.695,0.507-1.461,0.494-2.234c0.011-0.771-0.158-1.535-0.494-2.229c-0.308-0.624-0.777-1.153-1.36-1.534 C222.875,50.039,221.345,50.039,220.13,50.782z M121.452,59.59c-0.612-0.273-1.163-0.668-1.62-1.159 c-0.468-0.503-0.834-1.093-1.08-1.733c-0.256-0.689-0.385-1.418-0.381-2.152c-0.007-0.729,0.126-1.454,0.391-2.135 c0.247-0.643,0.617-1.232,1.091-1.734c0.453-0.49,0.999-0.887,1.606-1.166c0.626-0.282,1.307-0.426,1.993-0.42 c0.688-0.006,1.37,0.136,2,0.414c0.605,0.275,1.149,0.67,1.6,1.158c0.469,0.504,0.835,1.093,1.081,1.735 c0.261,0.687,0.391,1.415,0.385,2.147c0.004,0.73-0.129,1.455-0.392,2.136c-0.247,0.644-0.616,1.233-1.088,1.735 c-0.453,0.492-1.001,0.887-1.611,1.16c-0.621,0.285-1.299,0.431-1.982,0.424C122.759,60.008,122.079,59.868,121.452,59.59z M121.465,50.782c-0.585,0.379-1.057,0.908-1.364,1.534c-0.339,0.694-0.508,1.458-0.494,2.229c-0.016,0.773,0.154,1.539,0.494,2.234 c0.307,0.627,0.778,1.157,1.364,1.535c1.216,0.742,2.745,0.742,3.961,0c0.584-0.379,1.054-0.91,1.359-1.535 c0.338-0.695,0.507-1.461,0.494-2.234c0.012-0.771-0.157-1.535-0.494-2.229c-0.308-0.624-0.777-1.153-1.359-1.534 C124.21,50.039,122.68,50.039,121.465,50.782z M32.182,59.59c-0.613-0.273-1.165-0.668-1.623-1.159 c-0.468-0.503-0.834-1.093-1.078-1.733c-0.257-0.689-0.386-1.418-0.382-2.152c-0.008-0.729,0.125-1.454,0.391-2.135 c0.244-0.643,0.612-1.232,1.084-1.734c0.455-0.49,1.003-0.887,1.612-1.166c0.624-0.281,1.303-0.425,1.988-0.42 c0.689-0.006,1.371,0.135,2,0.414c0.607,0.275,1.154,0.668,1.607,1.158c0.467,0.504,0.834,1.094,1.08,1.735 c0.26,0.687,0.391,1.415,0.384,2.147c0.004,0.73-0.13,1.455-0.394,2.136c-0.247,0.644-0.616,1.233-1.087,1.735 c-0.454,0.492-1.003,0.887-1.612,1.16c-0.621,0.286-1.298,0.431-1.982,0.424C33.486,60.007,32.808,59.868,32.182,59.59z M32.196,50.782c-0.585,0.379-1.057,0.909-1.365,1.534c-0.338,0.694-0.507,1.458-0.494,2.229c-0.015,0.773,0.155,1.539,0.494,2.234 c0.308,0.625,0.779,1.154,1.365,1.531c1.216,0.742,2.745,0.742,3.961,0c0.584-0.379,1.054-0.91,1.36-1.535 c0.337-0.695,0.507-1.461,0.493-2.234c0.012-0.771-0.157-1.535-0.493-2.229c-0.31-0.624-0.781-1.155-1.365-1.535 c-1.216-0.743-2.745-0.743-3.961,0L32.196,50.782z M180.152,59.54c-0.614-0.252-1.17-0.626-1.633-1.101 c-0.466-0.481-0.828-1.054-1.066-1.681c-0.258-0.68-0.386-1.401-0.378-2.129c-0.008-0.75,0.122-1.496,0.384-2.199 c0.241-0.648,0.613-1.24,1.093-1.739c0.476-0.488,1.047-0.873,1.679-1.13c0.68-0.273,1.407-0.409,2.14-0.4 c0.542,0.004,1.08,0.083,1.6,0.234c0.508,0.135,0.991,0.349,1.432,0.634l-0.208,1.115c-0.491-0.269-1.007-0.487-1.541-0.653 c-0.459-0.133-0.935-0.201-1.412-0.199c-0.72-0.014-1.43,0.174-2.048,0.543c-0.593,0.361-1.073,0.881-1.386,1.5 c-0.342,0.691-0.512,1.455-0.494,2.226c-0.02,0.777,0.149,1.548,0.494,2.246c0.311,0.614,0.792,1.125,1.386,1.473 c0.64,0.361,1.365,0.542,2.1,0.524c0.51-0.005,1.017-0.074,1.509-0.207c0.536-0.141,1.056-0.334,1.552-0.58l0.131,1.1 c-1.001,0.537-2.118,0.816-3.253,0.813C181.518,59.938,180.812,59.805,180.152,59.54z M105.666,59.54 c-0.613-0.252-1.169-0.626-1.633-1.101c-0.466-0.481-0.829-1.054-1.067-1.681c-0.257-0.68-0.385-1.401-0.377-2.129 c-0.008-0.75,0.122-1.496,0.384-2.199c0.242-0.649,0.616-1.241,1.099-1.739c0.477-0.489,1.049-0.874,1.681-1.132 c0.681-0.273,1.407-0.408,2.141-0.4c0.541,0.004,1.08,0.083,1.6,0.234c0.508,0.135,0.99,0.349,1.431,0.634l-0.208,1.115 c-0.491-0.268-1.009-0.485-1.544-0.651c-0.458-0.133-0.934-0.201-1.412-0.199c-0.72-0.014-1.43,0.174-2.048,0.543 c-0.593,0.361-1.072,0.881-1.386,1.5c-0.342,0.691-0.511,1.455-0.494,2.226c-0.02,0.777,0.15,1.548,0.494,2.246 c0.312,0.614,0.792,1.124,1.386,1.473c0.641,0.361,1.366,0.542,2.101,0.524c0.51-0.006,1.017-0.078,1.509-0.213 c0.534-0.139,1.053-0.333,1.548-0.578l0.131,1.1c-1,0.536-2.118,0.816-3.253,0.813c-0.71,0.011-1.416-0.121-2.075-0.385H105.666z M65.661,59.256c-0.777-0.443-1.414-1.094-1.84-1.881c-0.455-0.854-0.684-1.809-0.664-2.775c-0.008-0.748,0.126-1.492,0.395-2.189 c0.249-0.641,0.623-1.227,1.101-1.72c0.475-0.489,1.046-0.874,1.677-1.132c0.675-0.271,1.396-0.406,2.123-0.398 c0.595-0.002,1.187,0.072,1.762,0.219c0.56,0.141,1.097,0.358,1.595,0.648l-0.217,1.074c-0.481-0.276-1-0.482-1.54-0.611 c-0.564-0.135-1.145-0.202-1.726-0.199c-0.721-0.014-1.43,0.174-2.049,0.543c-0.593,0.361-1.072,0.881-1.385,1.5 c-0.342,0.691-0.512,1.455-0.494,2.226c-0.02,0.777,0.149,1.548,0.494,2.246c0.312,0.614,0.795,1.126,1.392,1.473 c0.646,0.362,1.379,0.543,2.12,0.524c0.849,0.006,1.692-0.125,2.5-0.387v-3.072h-2.33v-1.061h3.473v4.918 c-1.161,0.486-2.408,0.734-3.668,0.73c-0.948,0.02-1.884-0.214-2.713-0.676H65.661z M242.328,59.779l-6.24-8.688v8.691h-1.08v-10.47 h1.133l6.244,8.69v-8.69h1.079v10.467H242.328z M208.028,59.779V49.312h1.171v10.467H208.028z M195.907,59.779v-9.407h-3.375v-1.06 h7.935v1.06h-3.382v9.408L195.907,59.779z M163.521,59.779V49.312h6.089v1.06h-4.918v3.5h4.399v1.06h-4.399v3.788h5.113v1.06 H163.521z M149.93,59.779V49.312h1.171v9.407h4.853v1.06H149.93z M136.339,59.779V49.312h1.171v9.407h4.854v1.06H136.339z M80.193,59.779V49.312h6.089v1.06h-4.911v3.5h4.4v1.06h-4.4v3.788h5.113v1.06H80.193z M16.352,59.779V49.312h1.171v9.407h4.853 v1.06H16.352z M47.074,59.779V49.31h3.588c0.962-0.028,1.914,0.19,2.769,0.633c0.763,0.411,1.387,1.04,1.793,1.808 c0.438,0.859,0.655,1.815,0.629,2.781c0.084,1.43-0.43,2.83-1.417,3.868c-1.105,0.974-2.552,1.47-4.022,1.379H47.074z M48.242,50.37 v8.348h2.2c2.771,0,4.176-1.399,4.176-4.174c0.086-1.141-0.288-2.269-1.039-3.133c-0.861-0.752-1.987-1.127-3.127-1.041H48.242z"></path> </svg> 