<?xml version="1.0" encoding="UTF-8"?> <svg xmlns="http://www.w3.org/2000/svg" id="Simbavati_Logo_White" data-name="Simbavati Logo/White" width="257.361" height="60.001" viewBox="0 0 257.361 60.001"><g id="Group"><path id="SIMBAVATI" d="M0,28.053H1.168c0,5.153,5.2,9.032,11.786,9.032,6.053,0,10.354-2.975,10.354-7.067,0-4.463-4.938-6.535-10.619-8.766C7.327,19.074.85,16.471.85,10.041.85,4.145,6.318,0,13.7,0c6.743,0,11.946,4.145,11.946,9.616H24.476c0-4.835-4.407-8.447-10.247-8.447-5.575,0-9.716,3.082-9.716,7.119,0,4.569,5.31,6.748,10.566,8.82,6.159,2.337,12,4.622,12,10.945,0,6.216-5.628,10.2-13.486,10.2C6,38.254,0,33.845,0,28.053Zm252.635,9.67V.531h4.726V37.723Zm-23.732,0V1.594H216.32V.531h29.785V1.594H233.628V37.723Zm-47.237,0,16.3-37.19h2.072l16.246,37.188-4.939,0-4.779-11H187.985l-4.832,11v0Zm6.742-12.061h17.678L197.272,5.422ZM169.916,37.723,153.67.531h4.938l14.123,32.357L186.8.531h1.487l-16.3,37.192Zm-46.893,0L139.32.531h2.073l16.246,37.188-4.939,0-4.78-11H129.342l-4.832,11v0Zm6.742-12.061h17.678L138.632,5.422ZM93.011,37.723V.533h16.244a12.86,12.86,0,0,1,8.133,2.657,8.294,8.294,0,0,1,3.232,6.48c0,4.041-3.017,7.319-8.068,8.766a13.711,13.711,0,0,1,6.959,3.4,8.513,8.513,0,0,1,2.7,6.221,8.952,8.952,0,0,1-3.272,6.925,12.486,12.486,0,0,1-8.09,2.744Zm4.727-18.6V36.661h11.785c4.711,0,7.754-3.358,7.754-8.555,0-6.62-4.416-8.98-8.551-8.98Zm0-17.529V18.062h9.4c5.271,0,8.545-3.132,8.545-8.177S112.64,1.6,107.932,1.6Zm-17.2,36.127V2.869L65.3,28.053h-.85L49.217,2.869V37.723H47.943V.531h5.15L66.738,23.006,80.33.531h4.937V37.723Zm-47.465,0V.531H37.8V37.723Z" fill="#fff"></path></g><path id="LODGECOLLECTION" d="M203.765,10.5a5.031,5.031,0,0,1-1.623-1.156,5.352,5.352,0,0,1-1.078-1.734,6.063,6.063,0,0,1-.381-2.151,5.726,5.726,0,0,1,.391-2.135,5.275,5.275,0,0,1,1.084-1.734A5.081,5.081,0,0,1,203.77.42,4.728,4.728,0,0,1,205.758,0a4.828,4.828,0,0,1,2,.414,5,5,0,0,1,1.611,1.155,5.38,5.38,0,0,1,1.08,1.736,5.908,5.908,0,0,1,.385,2.148,5.846,5.846,0,0,1-.391,2.135,5.338,5.338,0,0,1-1.088,1.736,4.977,4.977,0,0,1-1.612,1.16,4.642,4.642,0,0,1-1.982.424A4.822,4.822,0,0,1,203.765,10.5Zm.013-8.81a3.873,3.873,0,0,0-1.364,1.535,4.9,4.9,0,0,0-.495,2.23,4.874,4.874,0,0,0,.495,2.234,3.834,3.834,0,0,0,1.364,1.535,3.8,3.8,0,0,0,3.961,0,3.844,3.844,0,0,0,1.36-1.535,4.93,4.93,0,0,0,.494-2.234,4.955,4.955,0,0,0-.494-2.23,3.892,3.892,0,0,0-1.36-1.535,3.8,3.8,0,0,0-3.961,0ZM105.1,10.5A5.034,5.034,0,0,1,103.48,9.34,5.368,5.368,0,0,1,102.4,7.606a6.063,6.063,0,0,1-.381-2.151,5.726,5.726,0,0,1,.391-2.135A5.278,5.278,0,0,1,103.5,1.586,5.078,5.078,0,0,1,105.107.42,4.731,4.731,0,0,1,107.1,0a4.825,4.825,0,0,1,2,.414A4.987,4.987,0,0,1,110.7,1.571a5.382,5.382,0,0,1,1.081,1.736,5.908,5.908,0,0,1,.384,2.148,5.828,5.828,0,0,1-.391,2.135,5.338,5.338,0,0,1-1.088,1.736,4.964,4.964,0,0,1-1.611,1.16,4.649,4.649,0,0,1-1.983.424A4.815,4.815,0,0,1,105.1,10.5Zm.013-8.81a3.869,3.869,0,0,0-1.365,1.535,4.9,4.9,0,0,0-.494,2.23,4.873,4.873,0,0,0,.494,2.234,3.83,3.83,0,0,0,1.365,1.535,3.8,3.8,0,0,0,3.961,0,3.848,3.848,0,0,0,1.359-1.535,4.919,4.919,0,0,0,.494-2.234,4.944,4.944,0,0,0-.494-2.23,3.9,3.9,0,0,0-1.359-1.535,3.8,3.8,0,0,0-3.961,0ZM15.83,10.5A5.031,5.031,0,0,1,14.207,9.34a5.352,5.352,0,0,1-1.078-1.734,6.063,6.063,0,0,1-.382-2.151,5.727,5.727,0,0,1,.391-2.135,5.261,5.261,0,0,1,1.084-1.734A5.088,5.088,0,0,1,15.834.42,4.732,4.732,0,0,1,17.823,0a4.821,4.821,0,0,1,2,.414A5,5,0,0,1,21.43,1.571a5.4,5.4,0,0,1,1.08,1.736,5.908,5.908,0,0,1,.384,2.148A5.828,5.828,0,0,1,22.5,7.59a5.321,5.321,0,0,1-1.087,1.736,4.977,4.977,0,0,1-1.612,1.16,4.642,4.642,0,0,1-1.982.424A4.816,4.816,0,0,1,15.83,10.5Zm.014-8.81a3.882,3.882,0,0,0-1.365,1.535,4.91,4.91,0,0,0-.494,2.23,4.885,4.885,0,0,0,.494,2.234A3.83,3.83,0,0,0,15.844,9.22a3.8,3.8,0,0,0,3.961,0,3.851,3.851,0,0,0,1.36-1.535,4.93,4.93,0,0,0,.494-2.234,4.955,4.955,0,0,0-.494-2.23A3.9,3.9,0,0,0,19.8,1.686a3.8,3.8,0,0,0-3.961,0ZM163.8,10.448a4.842,4.842,0,0,1-1.633-1.1,4.942,4.942,0,0,1-1.066-1.68,5.82,5.82,0,0,1-.378-2.129,6.137,6.137,0,0,1,.384-2.2A5.037,5.037,0,0,1,162.2,1.6a4.939,4.939,0,0,1,1.678-1.13,5.561,5.561,0,0,1,2.14-.4,5.89,5.89,0,0,1,1.6.234,4.979,4.979,0,0,1,1.431.634l-.208,1.115A8.465,8.465,0,0,0,167.3,1.4a5,5,0,0,0-1.412-.2,3.852,3.852,0,0,0-2.048.544,3.715,3.715,0,0,0-1.386,1.5,4.785,4.785,0,0,0-.494,2.225,4.808,4.808,0,0,0,.494,2.246,3.585,3.585,0,0,0,1.386,1.473,4.07,4.07,0,0,0,2.1.524,6,6,0,0,0,1.509-.207A8.09,8.09,0,0,0,169,8.925l.131,1.1a6.856,6.856,0,0,1-3.253.813A5.362,5.362,0,0,1,163.8,10.448Zm-74.486,0a4.851,4.851,0,0,1-1.633-1.1,4.942,4.942,0,0,1-1.067-1.68,5.819,5.819,0,0,1-.377-2.129,6.137,6.137,0,0,1,.383-2.2A5.037,5.037,0,0,1,87.719,1.6,4.948,4.948,0,0,1,89.4.468a5.564,5.564,0,0,1,2.14-.4,5.885,5.885,0,0,1,1.6.234,4.979,4.979,0,0,1,1.431.634l-.208,1.115A8.466,8.466,0,0,0,92.819,1.4a5,5,0,0,0-1.412-.2,3.852,3.852,0,0,0-2.048.544,3.721,3.721,0,0,0-1.386,1.5,4.785,4.785,0,0,0-.494,2.225,4.807,4.807,0,0,0,.494,2.246,3.591,3.591,0,0,0,1.386,1.473,4.07,4.07,0,0,0,2.1.524A6,6,0,0,0,92.968,9.5a8.09,8.09,0,0,0,1.548-.579l.131,1.1a6.854,6.854,0,0,1-3.253.813A5.366,5.366,0,0,1,89.319,10.448Zm-40.005-.283a4.784,4.784,0,0,1-1.84-1.88,5.658,5.658,0,0,1-.664-2.776A5.937,5.937,0,0,1,47.2,3.319,5.142,5.142,0,0,1,48.3,1.6,4.936,4.936,0,0,1,49.977.468,5.529,5.529,0,0,1,52.1.069a7.113,7.113,0,0,1,1.762.22,6.115,6.115,0,0,1,1.594.648L55.24,2.011A5.8,5.8,0,0,0,53.7,1.4,7.3,7.3,0,0,0,51.974,1.2a3.858,3.858,0,0,0-2.049.544,3.719,3.719,0,0,0-1.385,1.5,4.785,4.785,0,0,0-.494,2.225,4.807,4.807,0,0,0,.494,2.246,3.577,3.577,0,0,0,1.392,1.473,4.132,4.132,0,0,0,2.12.524,7.923,7.923,0,0,0,2.5-.386V6.253H52.222V5.193h3.473v4.918a9.413,9.413,0,0,1-3.668.73A5.357,5.357,0,0,1,49.314,10.166Zm176.667.523L219.736,2v8.691h-1.08V.221h1.132l6.245,8.691V.221h1.079V10.688Zm-34.3,0V.221h1.171V10.688Zm-12.121,0V1.281H176.18V.221h7.935v1.06h-3.382v9.408Zm-32.386,0V.221h6.089v1.06h-4.918v3.5h4.4V5.84h-4.4V9.628h5.113v1.06Zm-13.591,0V.221h1.171V9.628h4.853v1.06Zm-13.591,0V.221h1.171V9.628h4.853v1.06Zm-56.146,0V.221h6.089v1.06H65.019v3.5h4.4V5.84h-4.4V9.628h5.113v1.06ZM0,10.688V.221H1.171V9.628H6.024v1.06Zm30.722,0V.219h3.588a5.649,5.649,0,0,1,2.768.633,4.38,4.38,0,0,1,1.793,1.807A5.767,5.767,0,0,1,39.5,5.44a5.17,5.17,0,0,1-1.417,3.869,5.564,5.564,0,0,1-4.022,1.379Zm1.168-9.409V9.627h2.2c2.771,0,4.176-1.4,4.176-4.174A4.286,4.286,0,0,0,37.227,2.32,4.269,4.269,0,0,0,34.1,1.279Z" transform="translate(16.352 49.091)" fill="#fff"></path></svg> 