<?xml version="1.0" encoding="UTF-8"?> <!-- Generator: Adobe Illustrator 16.0.0, SVG Export Plug-In . SVG Version: 6.00 Build 0) --> <svg xmlns="http://www.w3.org/2000/svg" xmlns:xlink="http://www.w3.org/1999/xlink" version="1.1" id="Simbavati_Logo_White" x="0px" y="0px" width="257.361px" height="38.253px" viewBox="0 0 257.361 38.253" xml:space="preserve"> <g id="Group"> <path id="SIMBAVATI" fill="#FFFFFF" d="M0,28.053h1.168c0,5.153,5.2,9.032,11.786,9.032c6.053,0,10.354-2.976,10.354-7.066 c0-4.463-4.938-6.535-10.619-8.766C7.327,19.074,0.85,16.471,0.85,10.041C0.85,4.145,6.318,0,13.7,0 c6.743,0,11.946,4.145,11.946,9.616h-1.17c0-4.835-4.407-8.447-10.247-8.447c-5.575,0-9.716,3.082-9.716,7.119 c0,4.569,5.31,6.748,10.564,8.82c6.159,2.337,12,4.622,12,10.945c0,6.217-5.628,10.2-13.486,10.2C6,38.254,0,33.844,0,28.053z M252.635,37.723V0.531h4.728v37.191H252.635z M228.903,37.723V1.594H216.32V0.531h29.785v1.062h-12.479v36.129H228.903z M181.666,37.723l16.3-37.189h2.072l16.246,37.188h-4.938l-4.779-11h-18.581l-4.832,11l0,0L181.666,37.723z M188.408,25.662h17.678 l-8.812-20.24L188.408,25.662z M169.916,37.723L153.67,0.531h4.938l14.123,32.357L186.8,0.531h1.487l-16.3,37.191H169.916z M123.023,37.723L139.32,0.531h2.073l16.246,37.188H152.7l-4.78-11h-18.578l-4.832,11l0,0L123.023,37.723z M129.765,25.662h17.678 l-8.812-20.24L129.765,25.662z M93.01,37.723V0.533h16.244c2.937-0.069,5.806,0.869,8.135,2.657c2.013,1.551,3.203,3.939,3.23,6.48 c0,4.041-3.017,7.319-8.068,8.766c2.6,0.441,5.016,1.622,6.959,3.4c1.725,1.61,2.701,3.863,2.7,6.221 c0.002,2.682-1.199,5.223-3.271,6.925c-2.29,1.836-5.155,2.81-8.09,2.744L93.01,37.723z M97.738,19.123v17.538h11.785 c4.711,0,7.754-3.356,7.754-8.555c0-6.62-4.416-8.98-8.551-8.98L97.738,19.123z M97.738,1.594v16.468h9.4 c5.271,0,8.545-3.132,8.545-8.177c0-5.045-3.043-8.285-7.751-8.285L97.738,1.594z M80.538,37.721V2.869L65.3,28.053h-0.85 L49.217,2.869v34.854h-1.272V0.531h5.148l13.646,22.475L80.33,0.531h4.938v37.191L80.538,37.721z M33.073,37.721V0.531H37.8v37.191 L33.073,37.721z"></path> </g> </svg> 