<?xml version="1.0" encoding="UTF-8"?> <svg xmlns="http://www.w3.org/2000/svg" xmlns:xlink="http://www.w3.org/1999/xlink" width="60px" height="60px" viewBox="0 0 60 60" version="1.1"><title>Icons/Highlights/sunbed</title><g id="Icons/Highlights/sunbed" stroke="none" stroke-width="1" fill="none" fill-rule="evenodd"><path d="M9.46422491,51.4285714 L50.5328563,51.4285714 C51.0238943,51.4285714 51.4256527,51.0357856 51.4256527,50.5557141 L51.4256527,47.0642847 C51.4256527,47.0293704 51.4077967,46.9944561 51.4077967,46.9595418 C51.3988688,46.8984418 51.3899408,46.8460704 51.3720849,46.7849704 C51.354229,46.7238704 51.3274451,46.6802275 51.2917332,46.6278561 C51.2738773,46.5929418 51.2649493,46.5580275 51.2470934,46.5318417 L46.9081032,41.0502976 L51.1399578,37.2271825 C51.5060043,36.9042253 51.5238603,36.3455966 51.1935256,35.9964536 C50.863191,35.6385821 50.2918013,35.621125 49.9346828,35.9440822 L38.5783134,46.1914274 L9.46422491,46.1914274 C8.97318692,46.1914274 8.57142857,46.5842132 8.57142857,47.0642847 L8.57142857,50.5557141 C8.57142857,51.0357856 8.97318692,51.4285714 9.46422491,51.4285714 Z M45.5867646,42.2373836 L48.7115518,46.1914274 L41.2120626,46.1914274 L45.5867646,42.2373836 Z M10.3570212,47.9371421 L49.64006,47.9371421 L49.64006,49.6828567 L10.3570212,49.6828567 L10.3570212,47.9371421 Z" id="Shape" fill="#000000" fill-rule="nonzero"></path><path d="M11.2154841,38.9285714 C9.76125356,38.9285714 8.57142857,40.1339286 8.57142857,41.6071429 C8.57142857,43.0803571 9.76125356,44.2857143 11.2154841,44.2857143 L36.6512983,44.2857143 C37.5150231,44.2857143 38.3523073,43.9642857 38.9956942,43.3839286 C41.4546658,41.1607143 49.0607322,33.8303571 49.1136133,33.7767857 C49.6424244,33.3035714 49.9508976,32.6428571 49.9949652,31.9285714 C50.0390328,31.2142857 49.7922542,30.5267857 49.3163242,29.9910714 C48.8403943,29.4642857 48.1970074,29.1517857 47.4919259,29.1160714 C46.7780309,29.0892857 46.1082035,29.3214286 45.5705789,29.8214286 L36.6512983,38.4821429 C36.3251981,38.7678571 35.9109627,38.9285714 35.4702868,38.9285714 L30.6052246,38.9285714 L30.6052246,20.1785714 C30.6052246,19.6875 31.001833,19.2857143 31.4865765,19.2857143 C31.97132,19.2857143 32.3679283,19.6875 32.3679283,20.1785714 C32.3679283,20.6696429 32.7645366,21.0714286 33.2492802,21.0714286 C33.7340237,21.0714286 34.130632,20.6696429 34.130632,20.1785714 C34.130632,19.6875 34.5272403,19.2857143 35.0119838,19.2857143 C35.4967274,19.2857143 35.8933357,19.6875 35.8933357,20.1785714 C35.8933357,20.6696429 36.289944,21.0714286 36.7746875,21.0714286 C37.259431,21.0714286 37.6560394,20.6696429 37.6560394,20.1785714 C37.6560394,19.6875 38.0526477,19.2857143 38.5373912,19.2857143 C38.9780671,19.2857143 39.3658619,19.6339286 39.4187431,20.1071429 C39.4187431,20.1339286 39.4187431,20.1607143 39.4187431,20.1785714 C39.4187431,20.6696429 39.8153514,21.0714286 40.3000949,21.0714286 C40.7848384,21.0714286 41.1814467,20.6696429 41.1814467,20.1785714 C41.1814467,20.0625 41.1814467,19.9553571 41.1726332,19.9107143 C41.1726332,19.9107143 41.1726332,19.9107143 41.1726332,19.9107143 C41.0228034,13.6339286 35.9550303,8.57142857 29.7238728,8.57142857 C23.4045801,8.57142857 18.2662988,13.7767857 18.2662988,20.1785714 C18.2662988,20.6696429 18.6629072,21.0714286 19.1476507,21.0714286 C19.6323942,21.0714286 20.0290025,20.6696429 20.0290025,20.1785714 C20.0290025,20.1517857 20.0290025,20.1160714 20.037816,20.0892857 C20.037816,20.0892857 20.037816,20.0892857 20.037816,20.0892857 C20.0818836,19.6428571 20.4608649,19.2857143 20.9103544,19.2857143 C21.3950979,19.2857143 21.7917062,19.6875 21.7917062,20.1785714 C21.7917062,20.6696429 22.1883145,21.0714286 22.6730581,21.0714286 C23.1578016,21.0714286 23.5544099,20.6696429 23.5544099,20.1785714 C23.5544099,19.6875 23.9510182,19.2857143 24.4357617,19.2857143 C24.9205052,19.2857143 25.3171136,19.6875 25.3171136,20.1785714 C25.3171136,20.6696429 25.7137219,21.0714286 26.1984654,21.0714286 C26.6832089,21.0714286 27.0798173,20.6696429 27.0798173,20.1785714 C27.0798173,19.6875 27.4764256,19.2857143 27.9611691,19.2857143 C28.4459126,19.2857143 28.8425209,19.6875 28.8425209,20.1785714 L28.8425209,38.9285714 L11.2154841,38.9285714 Z M27.9611691,17.5 C27.2825282,17.5 26.6655819,17.7678571 26.1984654,18.1964286 C25.7313489,17.7678571 25.1144027,17.5 24.4357617,17.5 C23.7571208,17.5 23.1401745,17.7678571 22.6730581,18.1964286 C22.2059416,17.7678571 21.5889953,17.5 20.9103544,17.5 C20.734084,17.5 20.5578136,17.5178571 20.3903568,17.5535714 C21.5273007,13.4107143 25.273046,10.3571429 29.7238728,10.3571429 C34.1746996,10.3571429 37.9204449,13.4107143 39.0573888,17.5535714 C38.889932,17.5178571 38.7136616,17.5 38.5373912,17.5 C37.8587503,17.5 37.241804,17.7678571 36.7746875,18.1964286 C36.3075711,17.7678571 35.6906248,17.5 35.0119838,17.5 C34.3333429,17.5 33.7163966,17.7678571 33.2492802,18.1964286 C32.7821637,17.7678571 32.1652174,17.5 31.4865765,17.5 C30.8079356,17.5 30.1909893,17.7678571 29.7238728,18.1964286 C29.2567563,17.7678571 28.63981,17.5 27.9611691,17.5 Z M35.4702868,40.7142857 C36.3428251,40.7142857 37.1889229,40.3839286 37.8323097,39.7946429 C37.8411233,39.7857143 37.8411233,39.7857143 37.8499368,39.7767857 L46.7604039,31.125 C46.9366743,30.9642857 47.1481987,30.8839286 47.3949772,30.8928571 C47.6241287,30.9017857 47.8444667,31.0089286 48.00311,31.1875 C48.1617533,31.3660714 48.241075,31.5892857 48.223448,31.8303571 C48.2146344,32.0714286 48.1088722,32.2857143 47.9149748,32.4642857 C47.8356532,32.5357143 40.2560273,39.8571429 37.8146827,42.0535714 C37.497396,42.3392857 37.0831607,42.5 36.6424848,42.5 L11.2154841,42.5 C10.7307406,42.5 10.3341323,42.0982143 10.3341323,41.6071429 C10.3341323,41.1160714 10.7307406,40.7142857 11.2154841,40.7142857 L35.4702868,40.7142857 Z" id="Shape" fill="#000000" fill-rule="nonzero"></path></g></svg> 